<mxfile host="app.diagrams.net" modified="2022-04-04T11:54:52.489Z" agent="5.0 (Windows NT 10.0; Win64; x64) AppleWebKit/537.36 (KHTML, like Gecko) Chrome/100.0.4896.60 Safari/537.36" etag="jo1sA-WXylrlbDHBm6eU" version="17.4.0" type="github">
  <diagram id="aaI1xwEz6itGNzUrlcM6" name="Page-1">
    <mxGraphModel dx="1422" dy="754" grid="1" gridSize="10" guides="1" tooltips="1" connect="1" arrows="1" fold="1" page="1" pageScale="1" pageWidth="827" pageHeight="1169" math="0" shadow="0">
      <root>
        <mxCell id="0" />
        <mxCell id="4uLS4xOJOkkh1-fp7thj-1" value="Background" style="" parent="0" />
        <mxCell id="4uLS4xOJOkkh1-fp7thj-2" value="" style="rounded=0;whiteSpace=wrap;html=1;fillColor=#F5F5F5;fillOpacity=20;strokeColor=none;" vertex="1" parent="4uLS4xOJOkkh1-fp7thj-1">
          <mxGeometry x="290" y="160" width="520" height="490" as="geometry" />
        </mxCell>
        <mxCell id="4uLS4xOJOkkh1-fp7thj-3" value="Entrance" style="" parent="0" />
        <mxCell id="4uLS4xOJOkkh1-fp7thj-4" value="" style="rounded=0;whiteSpace=wrap;html=1;fillColor=#7D7D7D;strokeColor=none;fontColor=#ffffff;" vertex="1" parent="4uLS4xOJOkkh1-fp7thj-3">
          <mxGeometry x="290" y="490" width="100" height="160" as="geometry" />
        </mxCell>
        <mxCell id="4uLS4xOJOkkh1-fp7thj-5" value="" style="rounded=0;whiteSpace=wrap;html=1;" vertex="1" parent="4uLS4xOJOkkh1-fp7thj-3">
          <mxGeometry x="480" y="390" width="120" height="60" as="geometry" />
        </mxCell>
        <mxCell id="4uLS4xOJOkkh1-fp7thj-6" value="Matts" style="" parent="0" />
        <mxCell id="4uLS4xOJOkkh1-fp7thj-7" value="" style="shape=corner;whiteSpace=wrap;html=1;shadow=0;fontColor=default;strokeColor=none;strokeWidth=1;fillColor=#A3A3A3;gradientColor=none;rotation=90;dx=110;dy=110;rounded=1;arcSize=10;" vertex="1" parent="4uLS4xOJOkkh1-fp7thj-6">
          <mxGeometry x="500" y="100" width="250" height="370" as="geometry" />
        </mxCell>
        <mxCell id="4uLS4xOJOkkh1-fp7thj-8" value="" style="shape=corner;whiteSpace=wrap;html=1;shadow=0;fontColor=default;strokeColor=none;strokeWidth=1;fillColor=#A3A3A3;gradientColor=none;rotation=90;dx=100;dy=110;rounded=1;arcSize=10;flipH=1;" vertex="1" parent="4uLS4xOJOkkh1-fp7thj-6">
          <mxGeometry x="490" y="330" width="270" height="370" as="geometry" />
        </mxCell>
        <mxCell id="4uLS4xOJOkkh1-fp7thj-9" value="" style="rounded=0;whiteSpace=wrap;html=1;fillColor=#A3A3A3;strokeColor=none;rounded=1;arcSize=3;" vertex="1" parent="4uLS4xOJOkkh1-fp7thj-6">
          <mxGeometry x="440" y="310" width="220" height="200" as="geometry" />
        </mxCell>
        <mxCell id="4uLS4xOJOkkh1-fp7thj-10" value="" style="shape=manualInput;whiteSpace=wrap;html=1;rotation=-180;size=40;fillColor=#A3A3A3;strokeColor=none;rounded=1;arcSize=10;fontColor=default;shadow=0;strokeWidth=1;gradientColor=none;" vertex="1" parent="4uLS4xOJOkkh1-fp7thj-6">
          <mxGeometry x="290" y="160" width="100" height="280" as="geometry" />
        </mxCell>
        <mxCell id="4uLS4xOJOkkh1-fp7thj-11" value="Walls" style="" parent="0" />
        <mxCell id="4uLS4xOJOkkh1-fp7thj-12" value="" style="verticalLabelPosition=bottom;verticalAlign=top;html=1;shape=mxgraph.basic.polygon;polyCoords=[[1,0],[1,1],[0,1],[0,0.88],[0.12,0.85],[0.24,0.9],[0.36,0.88],[0.48,0.85],[0.61,0.88],[0.76,0.88],[0.85,0.83],[0.79,0.75],[0.79,0.69],[0.85,0.63],[0.85,0.54],[0.79,0.44],[0.85,0.29],[0.82,0.17],[0.7,0.13],[0.52,0.13],[0.39,0.15],[0.27,0.1],[0.12,0.15],[0,0.13],[0,0]];polyline=0;strokeWidth=1;perimeterSpacing=0;portConstraint=none;connectable=1;snapToPoint=0;perimeter=rectanglePerimeter;fixDash=1;collapsible=0;backgroundOutline=0;fillColor=#006633;strokeColor=none;rounded=0;" vertex="1" parent="4uLS4xOJOkkh1-fp7thj-11">
          <mxGeometry x="480" y="160" width="330" height="490" as="geometry" />
        </mxCell>
        <mxCell id="4uLS4xOJOkkh1-fp7thj-13" value="d" style="verticalLabelPosition=bottom;verticalAlign=top;html=1;shape=mxgraph.basic.polygon;polyCoords=[[0,0.08],[0.29,0],[0.57,0.08],[0.86,0],[1,0.25],[0.87,0.5],[0.93,0.92],[0.67,1],[0.6,0.67],[0.53,0.42],[0.33,0.33],[0,0.42]];polyline=0;shadow=0;strokeColor=none;strokeWidth=1;fillColor=#006633;gradientColor=none;fontColor=default;noLabel=1;rounded=0;" vertex="1" parent="4uLS4xOJOkkh1-fp7thj-11">
          <mxGeometry x="480" y="340" width="150" height="130" as="geometry" />
        </mxCell>
        <mxCell id="4uLS4xOJOkkh1-fp7thj-14" value="d" style="verticalLabelPosition=bottom;verticalAlign=top;html=1;shape=mxgraph.basic.polygon;polyCoords=[[0,0.08],[0.29,0],[0.57,0.08],[0.86,0.17],[0.86,0.67],[0.57,0.83],[0.14,0.83],[0.12,0.83],[0,0.42]];polyline=0;shadow=0;strokeColor=none;strokeWidth=1;fillColor=#006633;gradientColor=none;fontColor=default;noLabel=1;rounded=0;" vertex="1" parent="4uLS4xOJOkkh1-fp7thj-11">
          <mxGeometry x="480" y="430" width="70" height="60" as="geometry" />
        </mxCell>
        <mxCell id="4uLS4xOJOkkh1-fp7thj-15" value="d" style="verticalLabelPosition=bottom;verticalAlign=top;html=1;shape=mxgraph.basic.polygon;polyCoords=[[0,0],[1,0],[0.83,0.19],[0.83,0.29],[0.5,0.43],[0.83,0.57],[0.67,0.67],[0.67,0.81],[0.33,0.95],[0,1]];polyline=0;shadow=0;strokeColor=none;strokeWidth=1;fillColor=#006633;gradientColor=none;fontColor=default;noLabel=1;rounded=0;" vertex="1" parent="4uLS4xOJOkkh1-fp7thj-11">
          <mxGeometry x="290" y="160" width="70" height="240" as="geometry" />
        </mxCell>
      </root>
    </mxGraphModel>
  </diagram>
</mxfile>
